<svg width="21" height="21" viewBox="0 0 21 21" fill="none" xmlns="http://www.w3.org/2000/svg">
<path d="M16.75 0.5H4.2501C3.25585 0.5 2.30192 0.894734 1.59875 1.59869C0.895637 2.3018 0.500061 3.25575 0.500061 4.25004V16.75C0.500061 17.7442 0.894795 18.6981 1.59875 19.4013C2.30186 20.1053 3.25581 20.5 4.2501 20.5H13.2147C13.8775 20.5 14.5132 20.2368 14.9819 19.7673L19.7672 14.982C20.2359 14.5133 20.4999 13.8776 20.4999 13.2148V4.25021C20.4999 3.25596 20.1052 2.30203 19.4012 1.59886C18.6981 0.895745 17.7441 0.500168 16.7499 0.500168L16.75 0.5ZM14.25 18.7319V15.4999C14.2509 15.1685 14.3824 14.8511 14.6168 14.6167C14.8512 14.3823 15.1686 14.2507 15.5 14.2499H18.732L14.25 18.7319ZM19.25 12.9999H15.5001C14.8373 12.9999 14.2016 13.2631 13.7329 13.7318C13.2641 14.2006 13.001 14.8363 13.001 15.4991V19.249L4.25029 19.2498C3.58747 19.249 2.95177 18.9858 2.48386 18.517C2.0151 18.0483 1.75113 17.4126 1.75113 16.7506L1.7503 4.24985C1.75113 3.58703 2.01428 2.95133 2.48304 2.48342C2.95179 2.01467 3.58747 1.75069 4.24947 1.75069H16.7494C17.4122 1.75151 18.0479 2.01467 18.5158 2.48342C18.9846 2.95218 19.2486 3.58786 19.2486 4.24985L19.25 12.9999Z" fill="#748297"/>
<path d="M14.8749 5.5H6.12507C5.77968 5.5 5.50006 5.7796 5.50006 6.12501C5.50006 6.47041 5.77966 6.75001 6.12507 6.75001H14.8749C15.2203 6.75001 15.4999 6.47041 15.4999 6.12501C15.4999 5.7796 15.2203 5.5 14.8749 5.5Z" fill="#748297"/>
<path d="M14.8749 9.24988H6.12507C5.77968 9.24988 5.50006 9.52948 5.50006 9.87488C5.50006 10.2203 5.77966 10.4999 6.12507 10.4999H14.8749C15.2203 10.4999 15.4999 10.2203 15.4999 9.87488C15.4999 9.52948 15.2203 9.24988 14.8749 9.24988Z" fill="#748297"/>
</svg>